<svg width="328" height="17" viewBox="0 0 328 17" fill="none" xmlns="http://www.w3.org/2000/svg">
<path d="M287.476 12.0106H207.98C206.971 12.0106 205.325 12.0295 203.133 12.0649C203.133 9.28169 259.361 10.869 287.476 12.0106Z" fill="#FE8F29"/>
<path d="M1 12.0106L207.98 2.35266C270.026 1.33191 375.503 -0.0971416 301.048 2.35266C226.594 4.80247 176.634 7.29936 160.961 8.24158L62.5608 15.5439C102.42 14.4718 180.89 12.4238 203.133 12.0649M203.133 12.0649C205.325 12.0295 206.971 12.0106 207.98 12.0106C219.226 12.0106 265.663 12.0106 287.476 12.0106C259.361 10.869 203.133 9.28169 203.133 12.0649Z" stroke="#FE8F29"/>
</svg>
